<svg width="20" height="20" viewBox="0 0 20 20" fill="none" xmlns="http://www.w3.org/2000/svg">
<path d="M19.75 10.2243C19.75 9.56151 19.6952 8.89517 19.5783 8.24316H10.1965V11.9976H15.569C15.346 13.2085 14.6297 14.2796 13.5808 14.9603V17.3964H16.786C18.6682 15.6983 19.75 13.1905 19.75 10.2243Z" fill="#4285F4"/>
<path d="M10.1964 19.7501C12.879 19.7501 15.1413 18.8867 16.7896 17.3964L13.5844 14.9603C12.6926 15.555 11.5414 15.8918 10.2001 15.8918C7.60521 15.8918 5.40504 14.1758 4.61561 11.8687H1.30804V14.38C2.99655 17.6722 6.43568 19.7501 10.1964 19.7501Z" fill="#34A853"/>
<path d="M4.61196 11.8686C4.19532 10.6577 4.19532 9.34657 4.61196 8.1357V5.62439H1.30805C-0.102685 8.3793 -0.102685 11.625 1.30805 14.3799L4.61196 11.8686Z" fill="#FBBC04"/>
<path d="M10.1964 4.10897C11.6145 4.08747 12.985 4.61051 14.012 5.57061L16.8518 2.78704C15.0536 1.13194 12.6671 0.221997 10.1964 0.250657C6.43568 0.250657 2.99655 2.32848 1.30804 5.62435L4.61195 8.13565C5.39773 5.82497 7.60155 4.10897 10.1964 4.10897Z" fill="#EA4335"/>
</svg>
