<svg width="10" height="10" viewBox="0 0 10 10" fill="none" xmlns="http://www.w3.org/2000/svg">
<path d="M1.07107 8.92892C1.26623 9.12408 1.58301 9.12408 1.77817 8.92892L8.83139 1.8757L8.70305 7.14895C8.69633 7.42472 8.91412 7.65418 9.19077 7.66107C9.4669 7.66779 9.696 7.44965 9.70272 7.17352L9.84927 1.15092C9.84927 0.883631 9.74532 0.632608 9.55635 0.443634C9.36755 0.254837 9.11635 0.150715 8.83704 0.151069L2.82664 0.297439C2.55051 0.304156 2.33254 0.533437 2.33908 0.809385C2.34545 1.08551 2.57491 1.30365 2.85103 1.29694L8.13559 1.15728L1.07107 8.22181C0.875905 8.41697 0.875905 8.73375 1.07107 8.92892Z" fill="#2D2D2D"/>
</svg>
